<?xml version="1.0" standalone="no"?><!DOCTYPE svg PUBLIC "-//W3C//DTD SVG 1.1//EN" "http://www.w3.org/Graphics/SVG/1.1/DTD/svg11.dtd"><svg t="1584213280176" class="icon" viewBox="0 0 1032 1024" version="1.1" xmlns="http://www.w3.org/2000/svg" p-id="10468" xmlns:xlink="http://www.w3.org/1999/xlink" width="81.6328125" height="81"><defs><style type="text/css"></style></defs><path d="M453.793963 942.1141l-326.357015-4.055126c-28.166999 0-61.518107-33.339588-61.518107-61.518108v-1.670435a355.434113 355.434113 0 0 1 27.77531-133.231631 372.806642 372.806642 0 0 1 72.404739-111.746375A358.844105 358.844105 0 0 1 271.647373 551.819726a321.691316 321.691316 0 0 1 126.953097-32.417969l49.894181 0.576013h0.437769c29.422705-1.946921 101.885045-9.965012 139.77513-42.394501l14.13534-10.748389 0.103683-0.080641a270.322544 270.322544 0 0 0 73.983012-90.480003 258.641016 258.641016 0 0 0 27.648587-113.336169c0.864018-68.925625-25.632545-134.279973-74.616625-184.03591A263.156952 263.156952 0 0 0 460.199219 0.691215l0.610573-0.46081-16.727395-0.207365a239.137242 239.137242 0 0 0-97.104144 19.342492 258.191727 258.191727 0 0 0-81.263807 54.905486c-49.329688 49.030162-77.128039 113.946741-78.257023 182.803245a255.910718 255.910718 0 0 0 24.515081 113.854579c16.600673 35.182828 40.747106 66.241408 71.759605 92.300202l0.322567 0.276485 8.121773 4.976746-7.349916 2.753339A440.303756 440.303756 0 0 0 80.376748 628.440874 431.755735 431.755735 0 0 0 0 874.282899v2.776379a126.342525 126.342525 0 0 0 126.238843 126.250362l326.322454 3.997525c21.300933 0 34.318809-11.612407 34.84874-31.104661 0.241925-10.679267-2.557494-19.089046-8.329137-24.998931s-14.59615-9.089473-25.286937-9.089473zM313.039612 121.504022c36.864783-35.862522 85.042447-55.5391 135.743045-55.5391h2.154285c51.437893 0.564492 99.869002 21.542858 136.376658 59.075815s56.103592 86.401836 55.297175 137.816689-21.888465 99.938124-59.248619 136.388178c-36.634378 35.712759-84.23603 55.297175-134.372135 55.297175h-3.260229c-51.449413-0.576012-99.892043-21.554378-136.388178-59.075815s-56.092072-86.401836-55.239574-137.839729c0.495371-51.368772 21.439176-99.707719 58.937572-136.123213z" p-id="10469"></path><path d="M673.42743 1021.949396h0.783377c22.337755 0 32.809657-11.520245 35.943164-15.863377 17.683576-17.280367 31.841957-25.966632 42.106495-25.966631h0.230404c12.027136 0.149763 35.205868 17.153645 41.323119 26.554164l0.311046 0.47233 0.391688 0.403208c10.36822 10.564064 22.752483 16.243545 35.943164 16.404829 7.246234 0.103682 12.027136 0.172804 20.436915-3.905363l64.96266-34.952423 0.656654-0.414729c17.130604-12.487945 24.399878-36.634378 16.94628-56.241835a69.916366 69.916366 0 0 1-2.983743-19.503774v-0.103682a50.689077 50.689077 0 0 1 50.689077-50.689077H986.478563c16.877159 0 33.40871-15.759695 37.797923-36.092927 0.633613-2.419251 7.649443-29.952636 7.972009-54.675082v-1.152025l-0.391688-1.025302c-6.739343-17.476211-9.723087-45.412805-9.700046-47.993339v-1.38243l-0.276486-0.541451c-4.101207-20.24107-20.25259-36.162048-37.15279-36.380933h-3.559755a50.758199 50.758199 0 0 1-50.689077-50.689078v-1.44003c0-3.456073 1.267227-8.548022 2.304049-12.672269a64.755296 64.755296 0 0 0 1.520672-7.430558c7.499679-19.261849 0.829458-43.166357-15.771215-55.96535l-65.665396-37.68272-19.31945-0.241925c-22.844645-0.334087-33.546953 11.451123-36.726541 15.840336-7.614882 7.326876-27.072575 22.464477-38.535218 22.464478h-0.253446c-9.734607-0.138243-25.344539-11.704569-35.712759-19.365532-2.453812-1.808678-4.769381-3.536715-6.762383-4.919145-10.264538-10.299099-22.545119-15.828816-35.528435-15.990099-7.269274-0.103682-12.591628-0.172804-17.706617 4.377693l-67.554715 34.457052-0.403209 0.207364-0.368648 0.264966c-17.119084 12.487945-24.388358 36.634378-16.94628 56.241835a69.985487 69.985487 0 0 1 2.983744 19.584416 50.689077 50.689077 0 0 1-50.689077 50.689077h-4.953706c-17.073003-0.241925-33.800398 15.679053-38.178091 36.20813l-0.126723 0.587532v0.506891c-0.080642 0.840978-0.737296 3.824721-1.313308 6.451337-2.188847 9.953492-6.267013 28.466525-6.508938 47.014119-0.149763 11.623927 1.267227 45.66625 6.739343 55.804066 4.193369 20.114347 20.287151 35.885563 37.106709 36.115968h3.571276a50.689077 50.689077 0 0 1 50.689077 50.689077v1.463071c0 3.456073-1.267227 8.559542-2.304049 12.672269a64.432729 64.432729 0 0 0-1.520672 7.419038c-7.499679 19.261849-0.817937 43.154837 15.771215 55.942308 0 0 48.857358 28.21308 66.81742 33.086144 4.481375 1.278747 18.294149 1.359389 18.294148 1.359388z m197.16899-80.722355l-38.327854 20.022186-15.05696-15.448649-0.46081-0.322567c-23.604982-16.197464-42.014333-22.925287-63.54567-23.201773h-0.93314c-19.319451 0-41.714806 7.637922-63.188543 21.554378l-0.48385 0.311047-0.403209 0.403209a93.313983 93.313983 0 0 1-7.142552 6.14029 59.386862 59.386862 0 0 0-8.628663 7.891368l-33.523912-20.183469a93.982157 93.982157 0 0 0 6.002047-29.65311c0.702735-55.228054-38.385456-103.07163-91.655067-113.186405-0.230405-2.37317-0.587532-5.034347-0.967701-7.925929a160.834138 160.834138 0 0 1-1.88932-22.890726 131.492074 131.492074 0 0 1 1.946921-17.026922c0.714255-4.608098 1.451551-9.216196 1.820199-13.686051 55.101331-8.824508 93.682631-53.718902 94.466007-110.790194a94.10888 94.10888 0 0 0-5.18411-29.63007l38.350895-20.033706c3.974484 3.928403 9.769168 9.216196 15.805776 12.407304 22.844645 15.621452 41.265517 22.706403 59.697909 22.959848s37.118229-6.405256 60.538886-21.577419l0.48385-0.311046 0.403209-0.403209a78.971278 78.971278 0 0 1 11.151597-8.789947c1.255707-0.864018 2.430772-1.670435 3.513674-2.476852l38.10897 21.17421a93.866955 93.866955 0 0 0-5.955966 29.480306c-0.714255 55.228054 38.385456 103.07163 91.666588 113.197926 0.230405 2.304049 0.576012 4.988266 0.95618 7.845286a161.652075 161.652075 0 0 1 1.88932 22.948328v0.93314l0.288006 0.887059c1.969962 6.163331 1.082903 14.308144 0.218885 22.187991-0.253445 2.304049-0.506891 4.608098-0.679695 6.785424-55.112851 8.824508-93.682631 53.718902-94.466007 110.778674a93.809353 93.809353 0 0 0 5.18411 29.63007z" p-id="10470"></path><path d="M775.450718 665.708866a100.940385 100.940385 0 0 0-92.300201 26.047274c-25.621024 24.710925-36.864783 60.930575-30.240643 96.770056 6.992789 41.472881 40.689505 76.033616 81.955022 84.155388A102.368895 102.368895 0 0 0 857.348139 753.40097c-6.831505-44.157098-39.721804-79.386007-81.897421-87.692104z m20.425394 102.288254a40.228695 40.228695 0 0 1-12.499465 28.420444 40.977511 40.977511 0 0 1-27.648588 11.75065h-1.059862c-21.66958-0.264966-40.44758-19.584416-40.171094-41.230957a41.542003 41.542003 0 0 1 40.735586-40.159573h0.49537a41.576564 41.576564 0 0 1 40.182614 41.288557z" p-id="10471"></path></svg>