<?xml version="1.0" standalone="no"?><!DOCTYPE svg PUBLIC "-//W3C//DTD SVG 1.1//EN" "http://www.w3.org/Graphics/SVG/1.1/DTD/svg11.dtd"><svg t="1584412950085" class="icon" viewBox="0 0 1024 1024" version="1.1" xmlns="http://www.w3.org/2000/svg" p-id="10028" xmlns:xlink="http://www.w3.org/1999/xlink" width="100" height="100"><defs><style type="text/css"></style></defs><path d="M968.4375 652.75l-2-16.875-1-3.125c-0.5-0.5-11.25-19.5-31.25-26.125l-1.5-1-4.125-1.5c-16.375-6.125-34.25-6.125-51.25-1-8.75-16.875-25.625-26.125-37.875-29.125-15.375-6.625-38.875-7.625-59.875-0.5-3.125 1-5.125 2-7.625 3.125-0.5 0-1 0.5-2 0.5-7.125-5.625-14.875-10.25-22.5-14.375-17.375-6.125-33.75-4.125-44.5-3.125v-77.25c0-29.125-17.375-52.25-44-60.875-9.75-3.625-20-6.125-30.75-5.625-12.25 0-20.5 2-30.25 5.625-28.125 10.75-44.5 33.25-44.5 61.5v184.875c-5.625-1-10.75-1-14.875-1-9.75 0-20 2-29.125 5.625-28.125 9.25-45.625 32.25-45.625 61.5v115.75l2 30.25c3.625 22.5 11.25 32.25 35.375 62l59.875 69.125c3.625 3.625 10.25 8.75 19 8.75 5.625 0 13.25 0 21.5-4.625 12.75-9.25 15.375-25.625 5.625-36.875v-0.5L547.5625 908.75c-23-26.625-24-28.125-24-69.125v-107.5c0-5.625 3.125-10.25 8.75-12.25 4.625-1 8.75-1 12.75 0.5 3.625 1 7.625 3.625 7.625 12.25v92.125c0 14.375 13.25 26.125 29.125 26.125 15.875 0 29.125-11.75 29.125-26.125v-342.5c0-6.125 3.125-10.25 8.75-12.25 2-0.5 5.125-1 10.75-0.5l2 0.5c5.125 2 7.625 6.125 7.625 12.25v206.875c0 14.375 12.75 26.125 29.125 26.125 15.875 0 29.125-11.75 29.125-26.125v-63.5c0-6.125 2.5-10.25 8.25-12.25 2-0.5 5.625-1 10.75-0.5l2 0.5c5.125 2 7.625 6.125 7.625 12.25v63.5c0 14.375 12.75 26.125 29.125 26.125 15.875 0 29.125-11.75 29.125-26.125v-55.75c0-4.625 2-8.75 7.125-11.75 2.5 0 4.625-0.5 6.125-1 2.625-0.5 5.125-0.5 7.625-0.5l2.5 1c7.625 2.625 8.75 7.625 8.75 11.75v55.75c0 14.375 12.75 26.125 29.125 26.125 15.875 0 29.125-11.75 29.125-26.125v-23c0-5.625 4.625-10.25 8.25-12.25 2-1 7.125-0.5 11.25 0l2.625 0.5c4.625 2 7.125 6.125 7.125 11.75v215.5l-30.25 106v4.625c0 12.25 10.25 23.5 24 26.125 2 0 3.625 0.5 5.625 0.5 13.875 0 26.125-7.625 30.25-19.5l30.25-109 3.75-237.125zM256.3125 177.625h457.75c16.875 0 30.25 13.25 30.25 30.25 0 16.875-13.25 30.25-30.25 30.25H256.3125c-16.875 0-30.25-13.375-30.25-30.25-0.5-16.875 13.25-30.25 30.25-30.25z m0 133.125h457.75c16.875 0 30.25 13.25 30.25 30.25S730.9375 371.25 713.9375 371.25H256.3125c-16.875 0-30.25-13.375-30.25-30.25s13.25-30.25 30.25-30.25z m0 133.125h198.625c16.875 0 30.25 13.25 30.25 30.25 0 16.875-13.375 30.25-30.25 30.25H256.3125c-16.875 0-30.25-13.375-30.25-30.25 0-16.375 13.25-30.25 30.25-30.25z m0 0" p-id="10029"></path><path d="M389.9375 1024H180.4375C111.3125 1022.5 55.5625 966.125 55.5625 897V127.5C55.5625 57.375 112.9375 0 183.5625 0H803.0625c70.625 0 128 56.875 128 127v332.75c0.5 20-15.375 36.875-35.875 37.375-20 0.5-36.875-15.375-37.375-35.875V127c0-29.75-24.625-53.75-54.75-53.75H183.5625c-30.25 0-54.75 24-54.75 53.75v769.5c0 29.75 24.625 53.75 54.75 53.75h206.375c20 0 36.375 16.375 36.375 36.875 0.5 20.5-15.875 36.875-36.375 36.875z m0 0" p-id="10030"></path></svg>