<?xml version="1.0" standalone="no"?><!DOCTYPE svg PUBLIC "-//W3C//DTD SVG 1.1//EN" "http://www.w3.org/Graphics/SVG/1.1/DTD/svg11.dtd"><svg t="1584673551867" class="icon" viewBox="0 0 1176 1024" version="1.1" xmlns="http://www.w3.org/2000/svg" p-id="1538" xmlns:xlink="http://www.w3.org/1999/xlink" width="114.84375" height="100"><defs><style type="text/css"></style></defs><path d="M137.885149 690.584441l219.138896-47.36181v-94.578784L137.885149 605.420085zM137.885149 818.186139l219.138896-28.388119V695.219236L137.885149 728.386987zM137.885149 941.153041l219.138896-4.634795v-94.723621l-219.138896 9.559265zM137.885149 567.617539l219.138896-70.970297v-94.578784L137.885149 477.67355z" p-id="1539"></path><path d="M490.129562 941.297878c-43.59604-52.28628-69.956436-119.490806-69.956436-192.7785 0-109.786704 58.80396-205.813861 146.575389-258.389816V331.098161l-109.931542-66.190665-123.11174 42.871853v-90.233663l298.364923-132.38133v375.8529c28.098444-8.69024 58.079774-13.469873 89.074964-13.469873 28.967468 0 56.921075 4.055446 83.426309 11.731825V75.749929L691.163791 0 277.79802 184.522772V327.33239L49.389533 406.703253v477.67355H26.070721v56.776238h74.591231V439.871004l302.999717-99.358416v600.640453h86.467893z" p-id="1540"></path><path d="M930.000566 760.540877l58.079773-24.187836c5.503819-2.317397 8.545403-8.255728 7.241868-14.049222l-15.932108-66.190665c-1.448373-5.938331-7.09703-9.993777-13.180198-9.26959l-57.500424 6.083169c-4.634795 0.434512-9.124752-1.593211-11.586988-5.503819-5.358982-8.255728-11.152475-16.076945-17.525318-23.318812-3.041584-3.476096-3.910608-8.400566-2.17256-12.745686l21.146252-51.272419c2.317397-5.503819 0.144837-11.876662-4.92447-15.063083l-57.790099-35.629986c-5.214144-3.186421-12.021499-2.027723-15.932107 2.751909l-35.774823 44.465064c-2.896747 3.620934-7.676379 5.214144-12.166337 4.200283-11.731825-2.607072-23.608487-4.055446-35.629986-4.634795-4.634795-0.144837-8.69024-3.041584-10.573126-7.241867l-22.30495-49.534371c-2.462235-5.503819-8.545403-8.400566-14.338897-6.807355l-65.611316 17.670156c-5.938331 1.593211-9.848939 7.386704-8.979915 13.469873l7.531542 54.748514c0.579349 4.634795-1.448373 9.26959-5.358982 11.876662-7.241867 4.92447-14.194059 10.138614-20.566902 15.787271-3.476096 3.041584-8.400566 3.910608-12.745686 2.17256l-48.230834-20.277228c-5.503819-2.317397-11.876662-0.144837-15.063084 4.92447l-35.629986 57.934936c-3.186421 5.214144-2.027723 12.021499 2.75191 15.932107l41.857991 33.891938c3.620934 2.896747 5.214144 7.676379 4.200283 12.166337-2.462235 10.717963-4.055446 21.725601-4.779632 32.878076-0.289675 4.634795-3.186421 8.69024-7.531542 10.573126L473.618105 775.893635c-5.503819 2.317397-8.545403 8.255728-7.241867 14.049222l15.78727 66.190665c1.448373 5.938331 7.09703 9.993777 13.180198 9.26959l53.155304-5.648657c4.634795-0.434512 9.124752 1.738048 11.731825 5.648657 5.938331 9.559264 12.600849 18.53918 20.13239 26.794908 3.186421 3.476096 4.055446 8.545403 2.17256 12.890523l-19.408204 47.072136c-2.317397 5.503819-0.144837 11.876662 4.92447 15.063083l57.790099 35.629986c5.214144 3.186421 12.021499 2.027723 15.932107-2.751909l33.891938-42.147666c2.896747-3.620934 7.531542-5.214144 12.021499-4.345121 10.573126 2.317397 21.435926 3.765771 32.298727 4.200283 4.779632 0.289675 8.835078 3.186421 10.717964 7.531542l19.987553 48.085997c2.317397 5.503819 8.255728 8.545403 14.049222 7.241867l66.045827-15.78727c5.938331-1.448373 9.993777-7.09703 9.26959-13.180198l-5.938331-55.472702c-0.434512-4.489958 1.593211-8.979915 5.503819-11.44215 8.835078-5.793494 16.945969-12.021499 24.477511-18.828854 3.476096-3.186421 8.545403-4.055446 12.890523-2.317397l49.534371 20.422065c5.503819 2.317397 11.876662 0.144837 15.063083-4.92447l35.629986-57.934936c3.186421-5.214144 2.027723-12.021499-2.75191-15.932108L930.145403 809.640736c-3.620934-2.896747-5.214144-7.531542-4.34512-12.0215 2.607072-12.166337 3.910608-24.622348 4.200283-37.078359z m-199.151344 126.008487c-71.404809 0-129.339745-58.079774-129.339745-129.919095 0-71.694484 57.934936-129.919095 129.339745-129.919095s129.339745 58.079774 129.339745 129.919095c0 71.694484-57.934936 129.919095-129.339745 129.919095z m0 0" p-id="1541"></path><path d="M730.849222 692.322489c-35.485149 0-64.162942 28.822631-64.162942 64.162942 0 35.485149 28.677793 64.162942 64.162942 64.162942 35.485149 0 64.162942-28.677793 64.162942-64.162942 0-35.340311-28.677793-64.162942-64.162942-64.162942z m0 0" p-id="1542"></path></svg>