<?xml version="1.0" standalone="no"?><!DOCTYPE svg PUBLIC "-//W3C//DTD SVG 1.1//EN" "http://www.w3.org/Graphics/SVG/1.1/DTD/svg11.dtd"><svg t="1584212940059" class="icon" viewBox="0 0 1024 1024" version="1.1" xmlns="http://www.w3.org/2000/svg" p-id="3284" xmlns:xlink="http://www.w3.org/1999/xlink" width="81" height="81"><defs><style type="text/css"></style></defs><path d="M957.21984 0H66.78016C29.89568 0 0 29.89568 0 66.78016v623.32416c0 36.864 29.91616 66.78016 66.78016 66.78016h890.43968c36.87936 0 66.78016-29.89568 66.78016-66.78016V66.78016C1024 29.89568 994.10432 0 957.21984 0z m8.77568 673.50016a22.6816 22.6816 0 0 1-22.67648 22.67648H80.67584a22.6816 22.6816 0 0 1-22.67648-22.67648V83.23584a22.6816 22.6816 0 0 1 22.67648-22.67648h862.64832a22.6816 22.6816 0 0 1 22.67648 22.67648l-0.00512 590.26432zM917.79584 1022.30016H116.44416a28.16 28.16 0 0 1 0-56.32h801.35168a28.16 28.16 0 0 1 0 56.32zM751.78496 897.71008H282.45504a28.16 28.16 0 0 1 0-56.32h469.33504a28.16 28.16 0 0 1-0.00512 56.32z" fill="" p-id="3285"></path><path d="M212.48 604.16a28.16 28.16 0 0 1-28.16-28.16V378.43968a28.16 28.16 0 1 1 56.32 0V576a28.16 28.16 0 0 1-28.16 28.16zM367.78496 604.16a28.16 28.16 0 0 1-28.16-28.16V246.61504a28.16 28.16 0 1 1 56.32 0V576a28.16 28.16 0 0 1-28.16 28.16zM777.38496 604.16a28.16 28.16 0 0 1-28.16-28.16V306.34496a28.16 28.16 0 0 1 56.32 0V576a28.16 28.16 0 0 1-28.16 28.16zM559.86176 604.16h-0.13824a28.16 28.16 0 0 1-28.02688-28.29312l2.02752-426.65984a28.16512 28.16512 0 0 1 28.15488-28.02688h0.13824a28.16512 28.16512 0 0 1 28.02688 28.29312l-2.02752 426.65984a28.16 28.16 0 0 1-28.15488 28.02688z" fill="" p-id="3286"></path></svg>