<?xml version="1.0" standalone="no"?><!DOCTYPE svg PUBLIC "-//W3C//DTD SVG 1.1//EN" "http://www.w3.org/Graphics/SVG/1.1/DTD/svg11.dtd"><svg t="1585037790889" class="icon" viewBox="0 0 1024 1024" version="1.1" xmlns="http://www.w3.org/2000/svg" p-id="3393" xmlns:xlink="http://www.w3.org/1999/xlink" width="100" height="100"><defs><style type="text/css"></style></defs><path d="M912 41.5H112c-61.8 0-112 50.2-112 112v520c0 61.8 50.2 112 112 112h240.5v132.9h-81.9c-17.7 0-32 14.3-32 32s14.3 32 32 32h482.8c17.7 0 32-14.3 32-32s-14.3-32-32-32h-81.9V785.5H912c61.8 0 112-50.2 112-112v-520c0-61.7-50.2-112-112-112z m-800 64h800c26.5 0 48 21.5 48 48v375.8H64V153.5c0-26.4 21.5-48 48-48z m495.5 813h-191v-133h191v133z m304.5-197H112c-26.5 0-48-21.5-48-48v-80.2h896v80.2c0 26.5-21.5 48-48 48z" p-id="3394"></path></svg>