<?xml version="1.0" standalone="no"?><!DOCTYPE svg PUBLIC "-//W3C//DTD SVG 1.1//EN" "http://www.w3.org/Graphics/SVG/1.1/DTD/svg11.dtd"><svg t="1585037872212" class="icon" viewBox="0 0 1024 1024" version="1.1" xmlns="http://www.w3.org/2000/svg" p-id="1435" xmlns:xlink="http://www.w3.org/1999/xlink" width="100" height="100"><defs><style type="text/css"></style></defs><path d="M512 37.13015572q-63.51867787 0-123.58525366 16.57008989t-110.46726584 46.94858798-93.20675556 73.18456361-73.18456362 93.20675555-46.94858799 110.46726586-16.57008986 123.58525366q0 93.89717597 36.5922818 180.19972741t98.73011885 148.44038848 148.44038847 98.73011884 180.19972741 36.59228181q125.6565149 0 232.67167868-62.13783704t169.15300082-169.15300081 62.13783703-232.67167869-62.13783703-232.67167868-169.15300082-169.15300084-232.67167868-62.13783703zM512 912.58323753q-169.84342124 0-290.66699325-120.82357201t-120.82357202-290.66699325 120.82357202-290.66699324 290.66699325-120.82357203q111.84810667 0 206.43570305 54.54321251t149.8212293 149.8212293 55.23363292 207.12612346q0 171.22426207-121.51399244 292.73825449-121.51399243 118.75231078-289.97657283 118.75231077zM770.21723392 546.66041942q-19.33177153 91.13549431-92.51633516 151.20207013t-167.08173958 60.0665758q-91.13549431 0-162.93921711-56.61447374t-93.89717599-146.36912725q-2.76168163-9.66588576 2.76168165-17.95093069t14.49882865-10.35630618 17.26051029 2.76168166 9.66588576 14.49882864q17.9509307 74.56540445 77.32708609 121.51399242t135.32240066 46.94858799q51.09111045 0 96.65885762-22.7838736t76.63666567-62.82825743 42.1156451-89.7546535q1.38084082-8.28504494 8.97546535-13.80840823t17.26051028-3.45210206 14.49882865 9.66588577 3.45210207 17.26051027zM563.09111045 346.43850009q0-13.80840823 6.90420412-26.23597564t18.64135112-18.64135111 26.23597563-6.2137837 26.23597563 6.2137837 18.64135111 18.64135111 6.90420412 26.23597564-6.90420412 25.54555522-18.64135111 18.64135112-26.23597563 6.9042041-26.23597563-6.9042041-18.64135112-18.64135112-6.90420412-25.54555522zM357.34582782 346.43850009q0-6.90420412 2.07126123-13.80840823t4.83294289-12.42756741 7.59462452-10.35630617 10.35630617-8.28504494 12.42756741-4.83294288 13.80840823-1.38084082q13.80840823 0 25.54555522 6.2137837t18.64135111 18.64135111 6.90420414 26.23597564-6.90420414 25.54555522-18.64135111 18.64135112-25.54555522 6.9042041-25.54555522-6.9042041-18.64135111-18.64135112-6.90420412-25.54555522z" p-id="1436"></path></svg>