<?xml version="1.0" standalone="no"?><!DOCTYPE svg PUBLIC "-//W3C//DTD SVG 1.1//EN" "http://www.w3.org/Graphics/SVG/1.1/DTD/svg11.dtd"><svg t="1584213131512" class="icon" viewBox="0 0 1024 1024" version="1.1" xmlns="http://www.w3.org/2000/svg" p-id="4667" xmlns:xlink="http://www.w3.org/1999/xlink" width="81" height="81"><defs><style type="text/css"></style></defs><path d="M344.8 384c0 75.2 52 138.4 122.4 155.2l-1.6 250.4c0 10.4 4 20 11.2 27.2 7.2 7.2 16.8 11.2 27.2 11.2 21.6 0 39.2-17.6 39.2-38.4V682.4h44c21.6 0 38.4-17.6 38.4-39.2s-17.6-39.2-38.4-39.2H544v-65.6c69.6-17.6 120.8-80 120.8-155.2 0-88-72-160-160-160-88 0.8-160 72.8-160 160.8zM600 384c0 52-42.4 95.2-95.2 95.2-52 0-95.2-42.4-95.2-95.2 0-52 42.4-95.2 95.2-95.2C557.6 288.8 600 331.2 600 384z m0 0" fill="" p-id="4668"></path><path d="M899.2 118.4L544.8 4 536 1.6v0.8c-7.2-1.6-15.2-2.4-24-2.4-12 0-24 1.6-32.8 4.8L124.8 118.4c-20 6.4-35.2 27.2-35.2 48V664.8c10.4 48.8 36.8 97.6 80 145.6 34.4 38.4 79.2 75.2 132 111.2 89.6 60 175.2 96 178.4 96.8 8 3.2 17.6 5.6 28 5.6 12.8 0 25.6-3.2 34.4-8 3.2-1.6 92.8-48 184-113.6 54.4-39.2 99.2-76.8 132.8-112.8 42.4-45.6 67.2-88 74.4-125.6V166.4c1.6-20.8-14.4-41.6-34.4-48zM863.2 656c-3.2 11.2-7.2 21.6-13.6 31.2-25.6 42.4-78.4 94.4-152.8 148.8-41.6 29.6-84.8 57.6-128.8 84-19.2 11.2-37.6 21.6-56.8 32h-3.2-0.8c-19.2-8-37.6-16.8-56-26.4-45.6-23.2-88.8-48.8-126.4-76C232.8 785.6 176 718.4 160.8 656V181.6L500.8 72.8c4-0.8 7.2-1.6 11.2-1.6 4 0 7.2 0 11.2 0.8l340 109.6V656z m0 0" fill="" p-id="4669"></path></svg>