<?xml version="1.0" standalone="no"?><!DOCTYPE svg PUBLIC "-//W3C//DTD SVG 1.1//EN" "http://www.w3.org/Graphics/SVG/1.1/DTD/svg11.dtd"><svg t="1584213201117" class="icon" viewBox="0 0 1024 1024" version="1.1" xmlns="http://www.w3.org/2000/svg" p-id="7918" xmlns:xlink="http://www.w3.org/1999/xlink" width="81" height="81"><defs><style type="text/css"></style></defs><path d="M512 544.714105A266.455579 266.455579 0 0 1 322.344421 466.189474 266.455579 266.455579 0 0 1 243.819789 276.48c0-71.626105 27.863579-138.994526 78.524632-189.655579A266.455579 266.455579 0 0 1 512 8.353684c71.68 0 138.994526 27.917474 189.655579 78.524632 50.661053 50.661053 78.524632 118.029474 78.524632 189.709473 0 71.572211-27.863579 138.940632-78.524632 189.601685A266.455579 266.455579 0 0 1 512 544.714105z m0-469.315368a201.350737 201.350737 0 0 0-201.135158 201.135158A201.350737 201.350737 0 0 0 512 477.669053a201.350737 201.350737 0 0 0 201.135158-201.135158A201.350737 201.350737 0 0 0 512 75.452632z m243.173053 905.701052l-127.407158-127.407157 47.427368-47.427369 79.97979 80.033684 212.291368-212.237473 47.427368 47.427368-259.718736 259.610947z" p-id="7919"></path><path d="M76.207158 981.099789H9.162105a501.113263 501.113263 0 0 1 147.294316-355.597473A501.113263 501.113263 0 0 1 512 478.315789c73.296842 0 143.898947 15.413895 209.973895 45.810527l-28.025263 60.901052a432.235789 432.235789 0 0 0-181.948632-39.666526 434.391579 434.391579 0 0 0-308.170105 127.622737 434.391579 434.391579 0 0 0-127.622737 308.170105z" p-id="7920"></path></svg>