<?xml version="1.0" standalone="no"?><!DOCTYPE svg PUBLIC "-//W3C//DTD SVG 1.1//EN" "http://www.w3.org/Graphics/SVG/1.1/DTD/svg11.dtd"><svg t="1585037867376" class="icon" viewBox="0 0 1024 1024" version="1.1" xmlns="http://www.w3.org/2000/svg" p-id="1301" xmlns:xlink="http://www.w3.org/1999/xlink" width="100" height="100"><defs><style type="text/css"></style></defs><path d="M956.12236595 131.77042079L67.87763405 131.77042079c-11.02944423 0-19.97744082 8.943028-19.97744082 19.97744083l0 720.50551952c0 11.03317007 8.94799538 19.97744082 19.97744082 19.97744082l888.2447319 0c11.03317007 0 19.97744082-8.943028 19.97744082-19.97744082L976.09980556 151.74661886C976.09980556 140.71344879 967.15553602 131.77042079 956.12236595 131.77042079L956.12236595 131.77042079 956.12236595 131.77042079zM99.48808989 175.68949255l824.35194515 0c5.51410195 0 9.9912035 4.47586122 9.9912035 9.98251028l0 558.44061547L686.64674198 502.21992194c-7.7954987-7.80791777-20.45060953-7.80791777-28.24486669 0L568.63379487 591.97185623 395.29478978 418.62912531c-7.80295039-7.80295039-20.45060953-7.80295039-28.25355992 0L89.50185377 696.17347001l0-510.50146597C89.50185377 180.16535378 93.96902055 175.68949255 99.48808989 175.68949255L99.48808989 175.68949255 99.48808989 175.68949255zM923.84003504 852.27469877L99.48808989 852.27469877c-5.51906933 0-9.98623611-4.46716677-9.98623612-9.98251027l0-89.61656605L381.17049412 461.01194949l293.52281885 293.51785146c3.90209597 3.90209597 9.00636611 5.85314395 14.12429566 5.85314396 5.11296338 0 10.22716829-1.95104799 14.12429566-5.85314396 7.80295039-7.7954987 7.80295039-20.45060953 0-28.25728576l-106.05082366-106.04709782 75.63136448-75.63136447 261.30879343 256.0343809 0 41.66499746C933.83123854 847.807532 929.35537732 852.27469877 923.84003504 852.27469877L923.84003504 852.27469877 923.84003504 852.27469877zM748.75365452 452.72713595c55.16461003 0 99.8822331-44.72134892 99.8822331-99.88223309 0-55.16461003-44.71762307-99.88595894-99.8822331-99.88595895s-99.88595894 44.72134892-99.88595894 99.88595895C648.86769558 408.0045455 693.58904449 452.72713595 748.75365452 452.72713595L748.75365452 452.72713595 748.75365452 452.72713595zM748.75365452 292.91382435c33.0461093 0 59.93107851 26.87751873 59.9310785 59.93107851 0 33.0461093-26.88497042 59.93107851-59.9310785 59.93107851s-59.93604589-26.88497042-59.93604589-59.93107851C688.81760863 319.79010033 715.70754643 292.91382435 748.75365452 292.91382435L748.75365452 292.91382435 748.75365452 292.91382435z" p-id="1302"></path></svg>