<?xml version="1.0" standalone="no"?><!DOCTYPE svg PUBLIC "-//W3C//DTD SVG 1.1//EN" "http://www.w3.org/Graphics/SVG/1.1/DTD/svg11.dtd"><svg t="1585037783071" class="icon" viewBox="0 0 1024 1024" version="1.1" xmlns="http://www.w3.org/2000/svg" p-id="3259" xmlns:xlink="http://www.w3.org/1999/xlink" width="100" height="100"><defs><style type="text/css"></style></defs><path d="M915.456 417.792c-15.872-48.128-39.936-91.648-70.656-130.048l-36.864 56.832c15.36 22.016 28.672 46.08 38.912 71.68-32.256 0.512-58.368 26.624-58.368 59.392V701.44c0 19.968 10.24 37.888 25.088 48.64-45.568 69.632-113.152 120.832-192 145.92-10.752-11.776-26.112-18.944-43.52-18.944h-57.856c-32.768 0-59.392 26.624-59.392 59.392s26.624 59.392 59.392 59.392H578.56c24.576 0 46.08-14.848 54.784-36.352 104.96-30.72 194.048-101.376 248.832-198.144h16.896c68.096 0 122.88-55.296 122.88-122.88v-98.304c0-62.464-46.592-114.176-106.496-122.368z m43.008 220.672c0 32.768-26.624 59.392-59.392 59.392h-46.592V480.256h46.592c32.768 0 59.392 26.624 59.392 59.392v98.816zM108.544 417.792C48.64 425.984 2.048 477.696 2.048 539.648v98.304c0 68.096 55.296 122.88 122.88 122.88h50.688c32.768 0 59.392-26.624 59.392-59.392V476.16c0-32.256-26.112-58.88-58.368-59.392 32.256-79.36 91.136-143.872 165.376-183.808l34.304-83.968c-124.928 42.496-225.28 141.312-267.776 268.8z m62.976 280.064h-46.592c-32.768 0-59.392-26.624-59.392-59.392v-98.304c0-32.768 26.624-59.392 59.392-59.392h46.592v217.088zM492.544 400.896l39.936-39.936c13.312 8.192 28.16 14.336 44.032 18.432v56.32h70.656v-56.32c15.872-3.584 30.72-9.728 44.032-18.432l39.936 39.936 49.664-49.664-39.936-39.936c8.192-13.312 14.336-28.16 18.432-44.032h56.32V196.608h-56.32c-3.584-15.872-9.728-30.72-18.432-44.032l39.936-39.936-49.664-49.664L691.2 102.4c-13.312-8.192-28.16-14.336-44.032-18.432v-56.32h-70.656v56.32c-15.872 3.584-30.72 9.728-44.032 18.432l-39.936-39.936-49.664 50.176 39.936 39.936c-8.192 13.312-14.336 28.16-18.432 44.032h-56.32v70.656h56.32c3.584 15.872 9.728 30.72 18.432 44.032l-39.936 39.936 49.664 49.664z m119.296-251.392c45.568 0 82.432 36.864 82.432 82.432 0 45.568-36.864 82.432-82.432 82.432-45.568 0-82.432-36.864-82.432-82.432-0.512-45.568 36.864-82.432 82.432-82.432z" p-id="3260"></path></svg>