<?xml version="1.0" standalone="no"?><!DOCTYPE svg PUBLIC "-//W3C//DTD SVG 1.1//EN" "http://www.w3.org/Graphics/SVG/1.1/DTD/svg11.dtd"><svg t="1584673547477" class="icon" viewBox="0 0 1024 1024" version="1.1" xmlns="http://www.w3.org/2000/svg" p-id="1402" xmlns:xlink="http://www.w3.org/1999/xlink" width="100" height="100"><defs><style type="text/css"></style></defs><path d="M504.5 106.7c21.6 0 44.3 3.8 67.5 11.3 76.6 24.7 123.6 78.6 139.9 160 10.9 54.6-0.8 104.7-35.7 153.1-9 12.5-19.1 24.4-29.6 36.5-33.7 39.1-32.9 78 2.5 115.6 3.3 3.5 6.7 7 10.2 10.4 6.8 6.8 13.2 13.3 17.8 19.5 6.5 8.7 4.7 17.2 3.7 20.4-1.1 3.4-4.1 9.4-11.5 11.7-2.2 0.7-5 1.1-7.7 1.1H358.3c-11.6 0-14.8-3.9-17.5-8.6-4.6-8.1-4.6-14.4 0.2-22.6 2-3.4 6.3-8.2 10.6-12.8 1.4-1.5 2.8-3 4.3-4.7 2.2-2.5 5-5.2 7.9-8.1 3.7-3.6 7.8-7.7 12.1-12.6 28.6-32.8 29.1-69.7 1.6-103.6-4.3-5.3-8.7-10.4-13.1-15.5s-8.5-9.8-12.2-14.4c-28.6-36.1-44-71.6-47-108.7-5.8-69 14.5-124.2 62-168.8 41.7-39.3 87.9-59.2 137.3-59.2m0-41.5c-60.7 0-116.5 24.1-165.7 70.4-57.9 54.4-81.5 123.6-74.9 202.5 4.1 49.5 25.3 92.4 55.9 131 8.2 10.3 17.2 20 25.5 30.3 14.7 18.1 14.6 32.7-0.6 50.2-6.3 7.1-13.6 13.4-19.9 20.5-6.9 7.7-14.5 15.3-19.7 24.2-12.2 20.9-12.3 43-0.4 64 11.6 20.4 30.2 29.6 53.6 29.6h151v-0.1 0.1h152.2c6.6 0 13.5-0.9 19.9-2.9 39.9-12.4 54.9-61.5 29-96.5-9.1-12.2-20.7-22.6-31.2-33.7-21-22.3-21.2-36.8-1.2-60 11-12.8 21.9-25.6 31.8-39.3 40.2-55.8 56.3-117.9 42.8-185.5-19-95.4-75.1-161.4-167.8-191.4-27.6-9-54.4-13.4-80.3-13.4zM814.1 774c13.3 0 18.9 5.7 19 19 0 12.2 0.1 24.3 0 36.5H187c-0.1-14.4-0.1-29.2-0.1-38.6 0.1-11.1 6-16.9 17.3-16.9h609.9m0-41.5H204.2c-34 0-58.6 24.4-58.8 58.2-0.1 14.7 0.1 41.4 0.2 60 0.1 11.3 9.3 20.4 20.6 20.4H854c11.4 0 20.6-9.2 20.6-20.6 0-19.3 0.1-38.5 0-57.6-0.1-36.1-24.3-60.4-60.5-60.4z" p-id="1403"></path><path d="M186.8 936.5h646.6-646.6z" p-id="1404"></path><path d="M833.3 957.2H186.8c-11.5 0-20.8-9.3-20.8-20.8s9.3-20.8 20.8-20.8h646.1c11.5 0 21 9.3 21 20.8s-9.2 20.8-20.6 20.8z" p-id="1405"></path></svg>